# xmcd
#
# Track frame offsets:
#	225
#	16761
#	41980
#	60776
#	75074
#	98120
#	113400
#	133899
#	147069
#	160692
#	173821
#	186826
#	204323
#	227307
#	240452
#	253912
#	269679
#	303729
#
# Disc length: 4265
#
# Revision: 2
# Processed by: cddbd v1.5.1PL0 Copyright (c) Steve Scherf et al.
# Submitted via: audiograbber 1.80.04
# Normalized: r1:DSETVAR1
#
DISCID=e110a612
DTITLE=Various Artist - Black is back vol. 1
DYEAR=1900
DGENRE=
TTITLE0=The Real Thing - You to me are everything
TTITLE1=The Chi - Lites
TTITLE2=The Supremes - Nathan Jones
TTITLE3=The Three Degrees - When will I see you again
TTITLE4=Ike Turner and The Ikettes - I don't want nobody
TTITLE5=James Brown and  The Blue Flames - Lost Someone
TTITLE6=Ben E. King - Supernatural thing
TTITLE7=R. B. Graves - Take a letter Maria
TTITLE8=Carol Douglas - Doctor's order
TTITLE9=Sam and Dave - Hold on I'm coming
TTITLE10=Carole King - Up on the roof
TTITLE11=Al Jarreau - Use me (till you use me up)
TTITLE12=The Isly Brothers - Twist and shout
TTITLE13=Aaron Neville - Tell it like it is
TTITLE14=Al Green - How can you mend a broken heart
TTITLE15=The Four Tops - Standing in the shadows of love
TTITLE16=Barry White - I found love
TTITLE17=George McCrae - Rock Your Baby
EXTD=
EXTT0=
EXTT1=
EXTT2=
EXTT3=
EXTT4=
EXTT5=
EXTT6=
EXTT7=
EXTT8=
EXTT9=
EXTT10=
EXTT11=
EXTT12=
EXTT13=
EXTT14=
EXTT15=
EXTT16=
EXTT17=
PLAYORDER=
